<svg width="32" height="32" viewBox="0 0 32 32" fill="none" xmlns="http://www.w3.org/2000/svg">
<path d="M1.5 15L6.54703 12.212C7.90968 11.4592 9.566 11.4705 10.9182 12.2418L13.5421 13.7383C14.9132 14.5203 16.5953 14.5203 17.9664 13.7383L20.6593 12.2024C21.9739 11.4526 23.5789 11.4197 24.923 12.1151L30.5 15" stroke="white" stroke-width="0.744186"/>
<path d="M1.5 18L6.54703 15.212C7.90968 14.4592 9.566 14.4705 10.9182 15.2418L13.5421 16.7383C14.9132 17.5203 16.5953 17.5203 17.9664 16.7383L20.6593 15.2024C21.9739 14.4526 23.5789 14.4197 24.923 15.1151L30.5 18" stroke="white" stroke-width="0.744186"/>
<path d="M1.5 21L6.34606 17.9884C7.80904 17.0792 9.66452 17.0926 11.1142 18.0228L13.3429 19.4528C14.8122 20.3956 16.6962 20.3956 18.1656 19.4528L20.4698 17.9743C21.8802 17.0693 23.6786 17.0302 25.127 17.8731L30.5 21" stroke="white" stroke-width="0.744186"/>
</svg>
